<svg width="20" height="20" viewBox="0 0 20 20" fill="none" xmlns="http://www.w3.org/2000/svg">
<path d="M19.1666 10.0335C19.1666 4.95232 15.0625 0.833172 9.99992 0.833172C4.93731 0.833172 0.833252 4.95232 0.833252 10.0335C0.833252 14.3483 3.7928 17.9687 7.78547 18.963V12.845H5.89523V10.0335H7.78547V8.82206C7.78547 5.69056 9.19743 4.23911 12.2606 4.23911C12.8413 4.23911 13.8434 4.35338 14.2533 4.46768V7.01633C14.0369 6.99347 13.6612 6.98203 13.1943 6.98203C11.6912 6.98203 11.1104 7.55348 11.1104 9.03923V10.0335H14.1046L13.5902 12.845H11.1104V19.1665C15.6493 18.6163 19.1666 14.7374 19.1666 10.0335Z" fill="#5F7896"/>
</svg>
