<svg width="16" height="16" viewBox="0 0 16 16" fill="none" xmlns="http://www.w3.org/2000/svg">
<path fill-rule="evenodd" clip-rule="evenodd" d="M0.5 1.33333C0.5 0.873096 0.873096 0.5 1.33333 0.5C5.09057 0.5 8.69391 1.99256 11.3507 4.64932C14.0074 7.30609 15.5 10.9094 15.5 14.6667C15.5 15.1269 15.1269 15.5 14.6667 15.5C14.2064 15.5 13.8333 15.1269 13.8333 14.6667C13.8333 11.3515 12.5164 8.17204 10.1722 5.82783C7.82796 3.48363 4.64854 2.16667 1.33333 2.16667C0.873096 2.16667 0.5 1.79357 0.5 1.33333ZM0.5 7.16667C0.5 6.70643 0.873096 6.33333 1.33333 6.33333C3.54347 6.33333 5.66309 7.21131 7.22589 8.77411C8.78869 10.3369 9.66667 12.4565 9.66667 14.6667C9.66667 15.1269 9.29357 15.5 8.83333 15.5C8.3731 15.5 8 15.1269 8 14.6667C8 12.8986 7.29762 11.2029 6.04738 9.95262C4.79714 8.70238 3.10144 8 1.33333 8C0.873096 8 0.5 7.6269 0.5 7.16667ZM2.16667 12.1667C1.24619 12.1667 0.5 12.9129 0.5 13.8333C0.5 14.7538 1.24619 15.5 2.16667 15.5C3.08714 15.5 3.83333 14.7538 3.83333 13.8333C3.83333 12.9129 3.08714 12.1667 2.16667 12.1667Z" fill="#5F7896"/>
</svg>
